<?xml version="1.0" standalone="no"?><!DOCTYPE svg PUBLIC "-//W3C//DTD SVG 1.1//EN" "http://www.w3.org/Graphics/SVG/1.1/DTD/svg11.dtd"><svg t="1672905851695" class="icon" viewBox="0 0 1024 1024" version="1.1" xmlns="http://www.w3.org/2000/svg" p-id="14558" xmlns:xlink="http://www.w3.org/1999/xlink" width="128" height="128"><path d="M94.586667 298.666667l112.466666-187.44a53.593333 53.593333 0 0 1 45.733334-25.893334H512v213.333334zM554.666667 298.666667h417.413333l-112.466667-187.44a53.593333 53.593333 0 0 0-45.733333-25.893334H554.666667z m426.666666 42.666666v544a53.393333 53.393333 0 0 1-53.333333 53.333334H138.666667a53.393333 53.393333 0 0 1-53.333334-53.333334V341.333333z m-298.666666 192a21.333333 21.333333 0 0 0-21.333334-21.333333H405.333333a21.333333 21.333333 0 0 0 0 42.666667h256a21.333333 21.333333 0 0 0 21.333334-21.333334z" ></path></svg>