<?xml version="1.0" encoding="utf-8"?>
<!-- Generator: Adobe Illustrator 27.0.0, SVG Export Plug-In . SVG Version: 6.00 Build 0)  -->
<svg version="1.1" id="图层_1" xmlns="http://www.w3.org/2000/svg" xmlns:xlink="http://www.w3.org/1999/xlink" x="0px" y="0px"
	 viewBox="0 0 128 128" style="enable-background:new 0 0 128 128;" xml:space="preserve">
<path d="M65.5,0.2L66,0.3l49.4,17.4c2.2,0.8,3.7,2.7,3.9,5l0,0.5v51.5h-0.1c-1.1,18.7-16.6,35-45.6,49.3l-2.8,1.4
	c-1.4,0.7-2.9,1.4-4.4,2c-1.5,0.7-3.2,0.7-4.7,0c-1.5-0.7-2.9-1.3-4.4-2l-2.8-1.4C25.5,109.7,10,93.4,8.9,74.7H8.9V23.2
	c0-2.3,1.4-4.4,3.5-5.3l0.4-0.2L62.2,0.3C63.2-0.1,64.4-0.1,65.5,0.2z M64.1,12L20.5,27.4v45.3c0,14.1,12.7,27.9,39,40.8l2.7,1.3
	l1.8,0.9l1.8-0.9l2.7-1.3l2.6-1.3c24.1-12.4,36-25.4,36.4-38.8l0-0.7V27.4L64.1,12z M60.8,82.6c-0.4,0.4-1,0.7-1.5,0.8l-0.3,0h-0.3
	c-0.7,0-1.4-0.3-1.9-0.8L40.3,66.2c-1.1-1.1-1.1-3,0-4.1l4.1-4.1c1.1-1.1,3-1.1,4.1,0l10.3,10.3l22.6-22.6c1.1-1.1,3-1.1,4.1,0
	l4.1,4.1c1.1,1.1,1.1,3,0,4.1c0,0,0,0,0,0L60.8,82.6z"/>
</svg>
