<?xml version="1.0" standalone="no"?><!DOCTYPE svg PUBLIC "-//W3C//DTD SVG 1.1//EN" "http://www.w3.org/Graphics/SVG/1.1/DTD/svg11.dtd"><svg t="1672906809650" class="icon" viewBox="0 0 1024 1024" version="1.1" xmlns="http://www.w3.org/2000/svg" p-id="15223" xmlns:xlink="http://www.w3.org/1999/xlink" width="128" height="128"><path d="M390.4 320V230.4c0-12.8 12.8-25.6 25.6-25.6s25.6 12.8 25.6 25.6V320h44.8V230.4c0-12.8 12.8-25.6 25.6-25.6s19.2 12.8 19.2 25.6V320H576V57.6c0-19.2 19.2-38.4 38.4-38.4s38.4 19.2 38.4 38.4V320c57.6 0 102.4 51.2 102.4 102.4V896c0 57.6-44.8 102.4-102.4 102.4H377.6c-57.6 0-102.4-44.8-102.4-102.4V422.4C275.2 364.8 320 320 377.6 320h12.8z m256 76.8H377.6c-12.8 0-25.6 12.8-25.6 25.6V896c0 19.2 12.8 32 25.6 32h268.8c12.8 0 25.6-12.8 25.6-32V422.4c6.4-12.8-6.4-25.6-25.6-25.6z m-249.6 38.4h236.8c12.8 0 25.6 12.8 25.6 19.2v147.2c0 12.8-12.8 19.2-25.6 19.2H396.8c-12.8 6.4-25.6 0-25.6-12.8V460.8c0-12.8 12.8-25.6 25.6-25.6z m211.2 44.8h-192v102.4h192V480z m-211.2 249.6c-12.8 0-25.6-12.8-25.6-25.6s12.8-25.6 25.6-25.6h236.8c12.8 0 25.6 12.8 25.6 25.6s-12.8 25.6-25.6 25.6H396.8z m0 96c-12.8 0-25.6-12.8-25.6-19.2 0-12.8 12.8-25.6 25.6-25.6h236.8c12.8 0 25.6 12.8 25.6 25.6s-12.8 19.2-25.6 19.2H396.8z" fill="" p-id="15224"></path></svg>