<?xml version="1.0" encoding="utf-8"?>
<!-- Generator: Adobe Illustrator 27.0.0, SVG Export Plug-In . SVG Version: 6.00 Build 0)  -->
<svg version="1.1" id="图层_1" xmlns="http://www.w3.org/2000/svg" xmlns:xlink="http://www.w3.org/1999/xlink" x="0px" y="0px"
	 viewBox="0 0 128 128" style="enable-background:new 0 0 128 128;" xml:space="preserve">
<style type="text/css">
	.st0{fill:;}
</style>
<path class="st0" d="M63.4,60.4c0.4,0.2,0.9,0.2,1.3,0l52.8-29.9L64.6,0.2c-0.4-0.2-0.9-0.2-1.3,0L10.9,30.3
	C10.9,30.3,63.4,60.4,63.4,60.4z M60.7,67.2c0-0.5-0.2-0.9-0.7-1.1L7.4,35.8v60.8c0,0.5,0.2,0.9,0.7,1.1L60.7,128V67.2z M49.1,74.2
	c0,1-1.1,1.6-2,1.1L24.9,62.5c-0.4-0.2-0.7-0.7-0.7-1.1v-3.9c0-1,1.1-1.6,2-1.1l22.2,12.8c0.4,0.2,0.7,0.7,0.7,1.1V74.2L49.1,74.2z
	 M67.9,66.1c-0.4,0.2-0.7,0.7-0.7,1.1V128l52.7-30.3c0.4-0.2,0.7-0.7,0.7-1.1V36.3L67.9,66.1z"/>
</svg>
