<?xml version="1.0" encoding="utf-8"?>
<!-- Generator: Adobe Illustrator 27.0.0, SVG Export Plug-In . SVG Version: 6.00 Build 0)  -->
<svg version="1.1" id="图层_1" xmlns="http://www.w3.org/2000/svg" xmlns:xlink="http://www.w3.org/1999/xlink" x="0px" y="0px"
	 viewBox="0 0 128 128" style="enable-background:new 0 0 128 128;" xml:space="preserve">
<path d="M83.4,16.7H44.6c-0.1,0-0.2-0.1-0.2-0.2V0.2c0-0.1,0.1-0.2,0.2-0.2h38.7c0.1,0,0.2,0.1,0.2,0.2v16.4
	C83.5,16.7,83.5,16.7,83.4,16.7z"/>
<path d="M103.8,10.8H88.6c-0.2,5.5-4.8,9.9-10.3,9.9H49.7c-5.6,0-10.1-4.4-10.3-9.9H24.2c-8.4,0-15.3,6.9-15.3,15.3v86.6
	c0,8.4,6.9,15.3,15.3,15.3h79.6c8.4,0,15.3-6.9,15.3-15.3V26.1C119.1,17.7,112.2,10.8,103.8,10.8z M92.7,96.4H35.3
	c-2.1,0-3.8-1.7-3.8-3.8c0-2.1,1.7-3.8,3.8-3.8h57.4c2.1,0,3.8,1.7,3.8,3.8C96.5,94.7,94.8,96.4,92.7,96.4z M92.7,73.1H35.3
	c-2.1,0-3.8-1.7-3.8-3.8c0-2.1,1.7-3.8,3.8-3.8h57.4c2.1,0,3.8,1.7,3.8,3.8C96.5,71.4,94.8,73.1,92.7,73.1z M92.7,49.8H35.3
	c-2.1,0-3.8-1.7-3.8-3.8c0-2.1,1.7-3.8,3.8-3.8h57.4c2.1,0,3.8,1.7,3.8,3.8C96.5,48.1,94.8,49.8,92.7,49.8z"/>
</svg>
