<?xml version="1.0" standalone="no"?><!DOCTYPE svg PUBLIC "-//W3C//DTD SVG 1.1//EN" "http://www.w3.org/Graphics/SVG/1.1/DTD/svg11.dtd"><svg t="1672906948875" class="icon" viewBox="0 0 1465 1024" version="1.1" xmlns="http://www.w3.org/2000/svg" p-id="18726" xmlns:xlink="http://www.w3.org/1999/xlink" width="183.125" height="128"><path d="M1088.411608 10.139608c-85.353412 2.168471-160.547137 40.116706-224.215843 112.318745l-2.088157 2.409412H603.597804l3.473569 4.015686C540.170039 50.176 460.498824 10.039216 369.543529 10.039216 240.579765 10.039216 113.724235 143.400157 79.349961 278.829176 56.882196 367.314824 11.384471 753.643922 10.039216 826.829804v11.183686c0.803137 106.475922 49.493333 175.927216 193.957647 175.927216l5.862902-0.080314c116.695843-3.152314 222.308392-100.793725 319.528157-287.964863l6.184156-12.087215h394.521098l1.264942 2.509804C1031.569569 912.946196 1140.695843 1013.960784 1261.688471 1013.960784c101.877961 0 161.370353-39.273412 183.79796-105.733019 7.710118-22.78902 9.878588-41.763137 10.159687-69.872941l0.040157-8.473099-0.120471-6.465254c-2.549961-81.076706-47.063843-457.386667-69.210353-544.587295C1351.981176 143.400157 1225.125647 10.039216 1096.181961 10.039216l-7.770353 0.100392z m7.770353 60.134902c97.01898 0 203.494902 111.937255 231.785412 223.372549l1.947607 8.131765c21.88549 97.601255 64.25098 458.872471 65.515922 525.291921l0.020078 4.075922-0.100392 11.264c-0.401569 19.435922-2.148392 32.406588-6.927059 46.561882-13.854118 41.020235-49.79451 64.752941-126.735058 64.752941-95.774118 0-192.150588-92.441098-285.916863-283.286588l-8.272314-16.825726H498.206118l-8.252236 16.825726-9.396706 18.753255C389.76251 867.348078 296.618667 953.72549 204.03702 953.72549c-105.753098 0-133.160157-39.092706-133.742432-115.973019l-0.020078-7.930981 0.12047-6.023529c2.529882-76.298039 46.441412-447.809255 67.363138-530.150902C166.048627 182.211765 272.524549 70.27451 369.523451 70.27451c72.503216 0 135.770353 31.864471 191.467922 97.380392l14.536784 17.468235h314.849882l9.035294-11.083294c56.982588-69.852863 121.996549-103.765333 196.768628-103.765333z" p-id="18727"></path></svg>