<?xml version="1.0" standalone="no"?><!DOCTYPE svg PUBLIC "-//W3C//DTD SVG 1.1//EN" "http://www.w3.org/Graphics/SVG/1.1/DTD/svg11.dtd"><svg t="1672901382139" class="icon" viewBox="0 0 1032 1024" version="1.1" xmlns="http://www.w3.org/2000/svg" p-id="5122" xmlns:xlink="http://www.w3.org/1999/xlink" width="129" height="128"><path d="M586.37455 641.593361l191.20332 191.203319c8.497925 8.497925 21.244813 12.746888 29.742739 12.746888s21.244813-4.248963 29.742738-12.746888c16.995851-16.995851 16.995851-42.489627 0-59.485477l-191.203319-191.203319c12.746888-21.244813 16.995851-46.738589 16.99585-72.232365s-8.497925-50.987552-16.99585-72.232365l191.203319-191.20332c16.995851-16.995851 16.995851-42.489627 0-59.485477s-42.489627-16.995851-59.485477 0l-191.20332 191.203319c-21.244813-12.746888-46.738589-16.995851-72.232365-16.99585s-50.987552 8.497925-72.232365 16.99585L250.706501 186.954357c-12.746888-16.995851-42.489627-16.995851-59.485477 0s-16.995851 42.489627 0 59.485477l191.203319 191.20332c-12.746888 21.244813-16.995851 46.738589-16.995851 72.232365s8.497925 50.987552 16.995851 72.232365l-191.203319 191.203319c-16.995851 16.995851-16.995851 42.489627 0 59.485477 8.497925 8.497925 21.244813 12.746888 29.742738 12.746888s21.244813-4.248963 29.742739-12.746888l191.203319-191.203319c21.244813 12.746888 46.738589 16.995851 72.232365 16.995851s50.987552-8.497925 72.232365-16.995851z m-8.497925-131.717842c0 33.991701-29.742739 63.73444-63.73444 63.73444s-63.73444-29.742739-63.734439-63.73444 29.742739-63.73444 63.734439-63.73444 63.73444 29.742739 63.73444 63.73444z" p-id="5123"></path><path d="M186.972061 433.394191h8.497925c21.244813 0 38.240664-12.746888 42.489627-33.991701 4.248963-21.244813-12.746888-46.738589-33.991702-50.987552-29.742739-4.248963-55.236515-16.995851-76.481327-33.991701-50.987552-50.987552-50.987552-135.966805 0-186.954357 50.987552-50.987552 135.966805-50.987552 186.954357 0 21.244813 21.244813 33.991701 42.489627 38.240663 72.232365 4.248963 21.244813 25.493776 38.240664 50.987552 33.991701 21.244813-4.248963 38.240664-25.493776 33.991702-50.987552-8.497925-46.738589-29.742739-84.979253-59.485478-118.970954-84.979253-84.979253-225.195021-84.979253-310.174273 0s-84.979253 225.195021 0 310.174274c33.991701 29.742739 72.232365 50.987552 118.970954 59.485477zM403.669156 790.307054c-25.493776-4.248963-46.738589 12.746888-50.987552 33.991701-4.248963 25.493776-16.995851 50.987552-38.240663 72.232365-50.987552 50.987552-135.966805 50.987552-186.954357 0-50.987552-50.987552-50.987552-135.966805 0-186.954357 21.244813-21.244813 42.489627-33.991701 72.232365-38.240663 21.244813-4.248963 38.240664-25.493776 33.991701-50.987552-4.248963-21.244813-25.493776-38.240664-50.987552-33.991702-46.738589 8.497925-84.979253 29.742739-118.970954 59.485478-84.979253 84.979253-84.979253 225.195021 0 310.174274 42.489627 42.489627 97.726141 63.73444 152.962655 63.734439 55.236515 0 110.473029-21.244813 152.962656-63.734439 33.991701-33.991701 55.236515-72.232365 59.485477-118.970955 12.746888-21.244813-4.248963-42.489627-25.493776-46.738589zM841.31231 586.356846c-25.493776-4.248963-46.738589 12.746888-50.987552 33.991702-4.248963 21.244813 12.746888 46.738589 33.991701 50.987552 25.493776 4.248963 50.987552 16.995851 72.232365 38.240663 50.987552 50.987552 50.987552 135.966805 0 186.954357-50.987552 50.987552-135.966805 50.987552-186.954357 0-21.244813-21.244813-33.991701-42.489627-38.240663-72.232365-4.248963-21.244813-25.493776-38.240664-50.987552-33.991701-21.244813 4.248963-38.240664 25.493776-33.991702 50.987552 8.497925 46.738589 29.742739 84.979253 59.485478 118.970954 42.489627 42.489627 97.726141 63.73444 152.962655 63.73444 55.236515 0 110.473029-21.244813 152.962656-63.73444 84.979253-84.979253 84.979253-225.195021 0-310.174274-25.493776-33.991701-63.73444-55.236515-110.473029-63.73444zM624.615214 229.443983c25.493776 4.248963 46.738589-12.746888 50.987552-33.991701 4.248963-25.493776 16.995851-50.987552 38.240664-72.232365 50.987552-50.987552 140.215768-50.987552 186.954357 0 50.987552 50.987552 50.987552 135.966805 0 186.954357-21.244813 21.244813-42.489627 33.991701-72.232365 38.240664-21.244813 4.248963-38.240664 25.493776-33.991701 50.987552 4.248963 21.244813 21.244813 33.991701 42.489626 33.991701h8.497925c46.738589-8.497925 84.979253-29.742739 118.970955-59.485477 84.979253-84.979253 84.979253-225.195021 0-310.174274s-225.195021-84.979253-310.174274 0c-33.991701 33.991701-55.236515 72.232365-59.485477 118.970954-8.497925 21.244813 8.497925 42.489627 29.742738 46.738589z" p-id="5124"></path></svg>